<svg width="162" height="162" viewBox="0 0 162 162" fill="none" xmlns="http://www.w3.org/2000/svg">
<g id="slack-footer-icon">
<rect width="54" height="54" transform="scale(3)" fill="white"/>
<g id="Group">
<path id="Fill 8" fill-rule="evenodd" clip-rule="evenodd" d="M68.4352 27C62.6459 27 57.9529 31.7023 57.9529 37.5031C57.9529 43.3039 62.6459 48.0062 68.4352 48.0062H78.9175V37.5031C78.9175 31.7023 74.2246 27 68.4352 27" fill="#36C5F0"/>
<path id="Fill 9" fill-rule="evenodd" clip-rule="evenodd" d="M68.4352 55.0082H40.4823C34.693 55.0082 30 59.7105 30 65.5113C30 71.3121 34.693 76.0144 40.4823 76.0144H68.4352C74.2246 76.0144 78.9175 71.3121 78.9175 65.5113C78.9175 59.7105 74.2246 55.0082 68.4352 55.0082" fill="#36C5F0"/>
<path id="Fill 10" fill-rule="evenodd" clip-rule="evenodd" d="M134.823 65.5113C134.823 59.7105 130.13 55.0082 124.341 55.0082C118.552 55.0082 113.859 59.7105 113.859 65.5113V76.0144H124.341C130.13 76.0144 134.823 71.3121 134.823 65.5113" fill="#2EB67D"/>
<g id="Group 14">
<mask id="mask0" mask-type="alpha" maskUnits="userSpaceOnUse" x="85" y="27" width="22" height="105">
<path id="Clip 12" fill-rule="evenodd" clip-rule="evenodd" d="M85.9058 27H106.87V132H85.9058V27Z" fill="white"/>
</mask>
<g mask="url(#mask0)">
<path id="Fill 11" fill-rule="evenodd" clip-rule="evenodd" d="M106.87 65.5114V37.5031C106.87 31.7023 102.177 27 96.3881 27C90.5987 27 85.9058 31.7023 85.9058 37.5031V65.5114C85.9058 71.3122 90.5987 76.0145 96.3881 76.0145C102.177 76.0145 106.87 71.3122 106.87 65.5114" fill="#2EB67D"/>
<path id="Fill 13" fill-rule="evenodd" clip-rule="evenodd" d="M96.3881 132.031C102.177 132.031 106.87 127.329 106.87 121.528C106.87 115.727 102.177 111.025 96.3881 111.025H85.9058V121.528C85.9058 127.329 90.5987 132.031 96.3881 132.031" fill="#ECB22E"/>
</g>
</g>
<path id="Fill 15" fill-rule="evenodd" clip-rule="evenodd" d="M96.3881 104.023H124.341C130.13 104.023 134.823 99.3203 134.823 93.5195C134.823 87.7186 130.13 83.0164 124.341 83.0164H96.3881C90.5987 83.0164 85.9058 87.7186 85.9058 93.5195C85.9058 99.3203 90.5987 104.023 96.3881 104.023" fill="#ECB22E"/>
<g id="Group 19">
<mask id="mask1" mask-type="alpha" maskUnits="userSpaceOnUse" x="30" y="83" width="49" height="49">
<path id="Clip 17" fill-rule="evenodd" clip-rule="evenodd" d="M30 83.0164H78.9175V132H30V83.0164Z" fill="white"/>
</mask>
<g mask="url(#mask1)">
<path id="Fill 16" fill-rule="evenodd" clip-rule="evenodd" d="M30 93.5195C30 99.3203 34.693 104.023 40.4823 104.023C46.2717 104.023 50.9647 99.3203 50.9647 93.5195V83.0164H40.4823C34.693 83.0164 30 87.7186 30 93.5195" fill="#E01E5A"/>
<path id="Fill 18" fill-rule="evenodd" clip-rule="evenodd" d="M57.9529 93.5195V121.528C57.9529 127.329 62.6459 132.031 68.4352 132.031C74.2246 132.031 78.9175 127.329 78.9175 121.528V93.5195C78.9175 87.7181 74.2246 83.0164 68.4352 83.0164C62.6459 83.0164 57.9529 87.7186 57.9529 93.5195" fill="#E01E5A"/>
</g>
</g>
</g>
</g>
</svg>
